<svg id="rocket_logo" data-name="Layer 1" 
    xmlns="http://www.w3.org/2000/svg" viewBox="0 0 319.2 317.79">
    <title>rocket_before</title>
    <path d="M121,149.23A424,424,0,0,1,162.42,99c17.87-18.67,37.4-35.32,59.82-48.37a180.74,180.74,0,0,1,83.1-24.92c9-.44,18-.39,27-.52,2.83-.05,3.77.69,3.91,3.71,2.36,51.36-11.82,97.32-44.26,137.5-23.33,28.91-50.93,53.11-81,74.6a8.27,8.27,0,0,1-.36-1.06c-1.83-10.14-7.2-13.41-17.13-10.54-11,3.19-19.89,9.81-27.6,17.91-7.94,8.32-14.61,17.49-13.54,30a177.74,177.74,0,0,1-33.92-25.11c.8-1,1.53-2,2.4-2.83,13.45-13.51,26.76-27.17,38.68-42.1a71.23,71.23,0,0,0,6.78-9.83c.51-.92.91-1.88,0-2.73s-1.65-.15-2.4.24-1.28.77-1.9,1.17c-11.78,7.64-21.86,17.32-32.1,26.78-7,6.51-13.83,13.29-20.73,19.94a154.08,154.08,0,0,1-25.7-34.9c3.63-.63,7.4.06,11-1.45,16.69-7.11,28-19.63,35-35.94C134.32,159.11,132,154.21,121,149.23Zm84-32.56a39.41,39.41,0,0,0,78.82.78c.11-22.53-17.26-40.15-39.56-40.12A39.27,39.27,0,0,0,205,116.67Z" transform="translate(-17.26 -25.15)" fill="#666"/>
    <path d="M152.27,277.29c-1.07-12.52,5.6-21.69,13.54-30,7.71-8.1,16.58-14.72,27.6-17.91,9.93-2.87,15.3.4,17.13,10.54a8.27,8.27,0,0,0,.36,1.06c-5.09,22.69-18.61,40.87-31.83,59.14-9.52,13.15-19.91,25.62-32,36.58a38,38,0,0,1-5.68,4.24c-1.95,1.19-4.37,3.2-6.41,1.08s.05-4.47,1.21-6.44c1.26-2.14,2.84-4.1,4.25-6.15,8.7-12.63,14.26-26.29,13.6-41.92C153.93,284.05,153.93,280.5,152.27,277.29Z" transform="translate(-17.26 -25.15)" fill="#fcd700"/>
    <path d="M121,149.23c11,5,13.3,9.88,8.37,21.3-7.06,16.31-18.36,28.83-35,35.94-3.55,1.51-7.32.82-11,1.45C72,204.25,60.94,205.86,50,209.55c-8.73,2.94-16.46,7.75-23.77,13.28a12.75,12.75,0,0,1-5.66,2.75c-2.65.43-3.8-.82-3.07-3.41a20.34,20.34,0,0,1,4.37-7.36c8.39-10,18.37-18.33,28.55-26.4,15.48-12.27,31.53-23.71,49.32-32.52A67.24,67.24,0,0,1,121,149.23Z" transform="translate(-17.26 -25.15)" fill="#fcd700"/>
    <path d="M109.09,242.82c6.9-6.65,13.69-13.43,20.73-19.94,10.24-9.46,20.32-19.14,32.1-26.78.62-.4,1.24-.83,1.9-1.17s1.59-1,2.4-.24.5,1.81,0,2.73a71.23,71.23,0,0,1-6.78,9.83c-11.92,14.93-25.23,28.59-38.68,42.1-.87.87-1.6,1.88-2.4,2.83-7.29,6.59-14.51,13.26-21.88,19.75-6,5.27-12,10.52-18.89,14.66-1.11.67-2.52,2-3.69,1-1.41-1.26,0-2.83.71-4,6.23-10,14.27-18.56,22.12-27.25C100.81,251.79,105,247.32,109.09,242.82Z" transform="translate(-17.26 -25.15)" fill="#fcd700"/>
    <path d="M132.44,270.77c-.56.6-.94,1.09-1.4,1.5-8.21,7.26-16.26,14.74-25.46,20.79-1.58,1-3.71,3.15-5.21,1.64s.6-3.63,1.65-5.23c5.7-8.67,12.75-16.26,19.54-24.07,1.28-1.47,2.43-1.86,4-.39s3.71,2.94,5.55,4.43A13.72,13.72,0,0,1,132.44,270.77Z" transform="translate(-17.26 -25.15)" fill="#fcd700"/>
    <path d="M68.08,261.16c-2.93,0-2.1-1.54-1.56-2.73,1.92-4.24,4.9-7.8,7.8-11.35,4.57-5.59,9.46-10.92,14.12-16.43,1.48-1.76,2.49-1.57,3.75.17,6,8.37,7.12,5.52-1.26,13-6.33,5.62-12.69,11.21-19.86,15.8C70,260.23,68.9,260.73,68.08,261.16Z" transform="translate(-17.26 -25.15)" fill="#fcd700"/>
    <path d="M244.39,149a32.31,32.31,0,1,1,32.53-32.21A32.16,32.16,0,0,1,244.39,149Z" transform="translate(-17.26 -25.15)" fill="#fcd700"/>
</svg>